<svg width="25" height="25" viewBox="0 0 25 25" fill="none" xmlns="http://www.w3.org/2000/svg">
<path d="M9.81934 1.42906e-07C11.686 -0.000318225 13.5141 0.531315 15.0894 1.53262C16.6648 2.53392 17.9222 3.96342 18.7143 5.65365C19.5064 7.34388 19.8004 9.22484 19.5619 11.0762C19.3233 12.9275 18.5622 14.6725 17.3675 16.1067L24.7371 23.4744C24.8953 23.6319 24.9887 23.8429 24.999 24.0659C25.0094 24.2888 24.9358 24.5076 24.7928 24.679C24.6499 24.8504 24.4479 24.9621 24.2267 24.992C24.0055 25.0218 23.7811 24.9678 23.5978 24.8405L23.4728 24.7387L16.105 17.3692C14.8929 18.3783 13.4555 19.0806 11.9146 19.4167C10.3736 19.7529 8.77441 19.713 7.25215 19.3004C5.72988 18.8878 4.32937 18.1147 3.16907 17.0464C2.00877 15.9782 1.1228 14.6462 0.586111 13.1632C0.0494216 11.6801 -0.122206 10.0897 0.0857443 8.52627C0.293695 6.96288 0.875106 5.47257 1.7808 4.18138C2.6865 2.89019 3.88984 1.83611 5.28904 1.10829C6.68825 0.380471 8.24216 0.000323201 9.81934 1.42906e-07ZM9.81934 1.78567C7.68815 1.78567 5.64425 2.63227 4.13728 4.13922C2.6303 5.64617 1.78369 7.69004 1.78369 9.82119C1.78369 11.9523 2.6303 13.9962 4.13728 15.5032C5.64425 17.0101 7.68815 17.8567 9.81934 17.8567C11.9505 17.8567 13.9944 17.0101 15.5014 15.5032C17.0084 13.9962 17.855 11.9523 17.855 9.82119C17.855 7.69004 17.0084 5.64617 15.5014 4.13922C13.9944 2.63227 11.9505 1.78567 9.81934 1.78567ZM9.81934 8.92835C10.0561 8.92835 10.2832 9.02242 10.4507 9.18986C10.6181 9.3573 10.7122 9.58439 10.7122 9.82119V13.3925C10.7122 13.6293 10.6181 13.8564 10.4507 14.0239C10.2832 14.1913 10.0561 14.2854 9.81934 14.2854C9.58254 14.2854 9.35544 14.1913 9.188 14.0239C9.02056 13.8564 8.92649 13.6293 8.92649 13.3925V9.82119C8.92649 9.58439 9.02056 9.3573 9.188 9.18986C9.35544 9.02242 9.58254 8.92835 9.81934 8.92835ZM10.7122 6.24985C10.7122 6.48664 10.6181 6.71374 10.4507 6.88118C10.2832 7.04862 10.0561 7.14268 9.81934 7.14268C9.58254 7.14268 9.35544 7.04862 9.188 6.88118C9.02056 6.71374 8.92649 6.48664 8.92649 6.24985C8.92649 6.01305 9.02056 5.78596 9.188 5.61852C9.35544 5.45108 9.58254 5.35701 9.81934 5.35701C10.0561 5.35701 10.2832 5.45108 10.4507 5.61852C10.6181 5.78596 10.7122 6.01305 10.7122 6.24985Z" fill="black"/>
</svg>
