<svg width="25" height="10" viewBox="0 0 25 10" fill="none" xmlns="http://www.w3.org/2000/svg">
<path d="M22.9775 0.224199L12.3446 8.19409L1.71166 0.224199C1.52169 0.0815158 1.26666 0.00163574 1.0011 0.00163574C0.735538 0.00163574 0.480512 0.0815158 0.290536 0.224199C0.198551 0.293501 0.125473 0.376219 0.075585 0.46751C0.0256966 0.558801 0 0.656829 0 0.755852C0 0.854875 0.0256966 0.952903 0.075585 1.04419C0.125473 1.13548 0.198551 1.2182 0.290536 1.28751L11.6021 9.76779C11.8008 9.91667 12.0672 10 12.3446 10C12.622 10 12.8884 9.91667 13.0871 9.76779L24.3986 1.28914C24.4913 1.21979 24.5649 1.13687 24.6152 1.04527C24.6655 0.953679 24.6914 0.85527 24.6914 0.755852C24.6914 0.656435 24.6655 0.558025 24.6152 0.466431C24.5649 0.374838 24.4913 0.291916 24.3986 0.222563C24.2087 0.0798793 23.9536 0 23.6881 0C23.4225 0 23.1675 0.0798793 22.9775 0.222563V0.224199Z" fill="#3E8BFF"/>
</svg>
