<svg width="25" height="25" viewBox="0 0 25 25" fill="none" xmlns="http://www.w3.org/2000/svg">
<path d="M18.625 1.91152e-07C18.9638 -0.000183009 19.2908 0.131325 19.5432 0.369297C19.7955 0.607269 19.9555 0.934947 19.9925 1.28947L20 1.44737V5.26316H21.25C22.2065 5.2631 23.1269 5.6478 23.8228 6.33853C24.5188 7.02927 24.9376 7.97383 24.9938 8.97895L25 9.21053V18.4211C25.0002 19.085 24.762 19.7244 24.3331 20.2112C23.9043 20.6981 23.3164 20.9963 22.6875 21.0461L22.5 21.0526H20V23.5526C20.0002 23.9093 19.8752 24.2535 19.6492 24.5191C19.4231 24.7848 19.1118 24.9532 18.775 24.9921L18.625 25H6.375C6.03618 25.0002 5.70922 24.8687 5.45685 24.6307C5.20448 24.3927 5.04446 24.0651 5.0075 23.7105L5 23.5526V21.0526H2.5C1.86928 21.0528 1.26179 20.8021 0.799315 20.3507C0.336838 19.8992 0.0535542 19.2805 0.00625015 18.6184L5.82556e-09 18.4211V9.21053C-5.32772e-05 8.20367 0.365406 7.23485 1.0216 6.50229C1.6778 5.76973 2.57513 5.32881 3.53 5.26974L3.75 5.26316H5V1.44737C4.99983 1.09071 5.12476 0.746548 5.35083 0.480894C5.57691 0.21524 5.8882 0.0468028 6.225 0.00789498L6.375 1.91152e-07H18.625ZM17.5 17.1053H7.5V22.3684H17.5V17.1053ZM21.25 7.89474H3.75C3.44383 7.89478 3.14833 8.0131 2.91954 8.22726C2.69074 8.44141 2.54457 8.73651 2.50875 9.05658L2.5 9.21053V18.4211H5V15.9211C4.99983 15.5644 5.12476 15.2202 5.35083 14.9546C5.57691 14.6889 5.8882 14.5205 6.225 14.4816L6.375 14.4737H18.625C18.9638 14.4735 19.2908 14.605 19.5432 14.843C19.7955 15.081 19.9555 15.4086 19.9925 15.7632L20 15.9211V18.4211H22.5V9.21053C22.5 8.86156 22.3683 8.52688 22.1339 8.28012C21.8995 8.03336 21.5815 7.89474 21.25 7.89474ZM18.75 9.21053C19.0686 9.2109 19.375 9.33931 19.6067 9.56954C19.8384 9.79976 19.9778 10.1144 19.9965 10.4492C20.0151 10.784 19.9117 11.1137 19.7072 11.3708C19.5027 11.628 19.2126 11.7933 18.8963 11.8329L18.75 11.8421H16.25C15.9314 11.8417 15.625 11.7133 15.3933 11.4831C15.1616 11.2529 15.0222 10.9382 15.0035 10.6034C14.9849 10.2686 15.0883 9.93897 15.2928 9.6818C15.4973 9.42462 15.7874 9.25935 16.1038 9.21974L16.25 9.21053H18.75ZM17.5 2.63158H7.5V5.26316H17.5V2.63158Z" fill="black"/>
</svg>
