<svg width="28" height="28" viewBox="0 0 28 28" fill="none" xmlns="http://www.w3.org/2000/svg">
<path d="M14 0C15.2931 0 16.5326 0.165278 17.7188 0.495833C18.9049 0.826389 20.0229 1.29306 21.0729 1.89583C22.1229 2.49861 23.066 3.22778 23.9021 4.08333C24.7382 4.93889 25.4674 5.88681 26.0896 6.92708C26.7118 7.96736 27.1833 9.08056 27.5042 10.2667C27.825 11.4528 27.9903 12.6972 28 14C28 15.2931 27.8347 16.5326 27.5042 17.7188C27.1736 18.9049 26.7069 20.0229 26.1042 21.0729C25.5014 22.1229 24.7722 23.066 23.9167 23.9021C23.0611 24.7382 22.1132 25.4674 21.0729 26.0896C20.0326 26.7118 18.9194 27.1833 17.7333 27.5042C16.5472 27.825 15.3028 27.9903 14 28C12.7069 28 11.4674 27.8347 10.2812 27.5042C9.09514 27.1736 7.97708 26.7069 6.92708 26.1042C5.87708 25.5014 4.93403 24.7722 4.09792 23.9167C3.26181 23.0611 2.53264 22.1132 1.91042 21.0729C1.28819 20.0326 0.816667 18.9194 0.495833 17.7333C0.175 16.5472 0.00972222 15.3028 0 14C0 12.7069 0.165278 11.4674 0.495833 10.2812C0.826389 9.09514 1.29306 7.97708 1.89583 6.92708C2.49861 5.87708 3.22778 4.93403 4.08333 4.09792C4.93889 3.26181 5.88681 2.53264 6.92708 1.91042C7.96736 1.28819 9.08056 0.816667 10.2667 0.495833C11.4528 0.175 12.6972 0.00972222 14 0ZM14 26.1333C15.1181 26.1333 16.1924 25.9875 17.2229 25.6958C18.2535 25.4042 19.216 24.9958 20.1104 24.4708C21.0049 23.9458 21.8264 23.3139 22.575 22.575C23.3236 21.8361 23.9556 21.0194 24.4708 20.125C24.9861 19.2306 25.3944 18.2632 25.6958 17.2229C25.9972 16.1826 26.1431 15.1083 26.1333 14C26.1333 12.8819 25.9875 11.8076 25.6958 10.7771C25.4042 9.74653 24.9958 8.78403 24.4708 7.88958C23.9458 6.99514 23.3139 6.17361 22.575 5.425C21.8361 4.67639 21.0194 4.04444 20.125 3.52917C19.2306 3.01389 18.2632 2.60556 17.2229 2.30417C16.1826 2.00278 15.1083 1.85694 14 1.86667C12.8819 1.86667 11.8076 2.0125 10.7771 2.30417C9.74653 2.59583 8.78403 3.00417 7.88958 3.52917C6.99514 4.05417 6.17361 4.68611 5.425 5.425C4.67639 6.16389 4.04444 6.98056 3.52917 7.875C3.01389 8.76944 2.60556 9.73681 2.30417 10.7771C2.00278 11.8174 1.85694 12.8917 1.86667 14C1.86667 15.1181 2.0125 16.1924 2.30417 17.2229C2.59583 18.2535 3.00417 19.216 3.52917 20.1104C4.05417 21.0049 4.68611 21.8264 5.425 22.575C6.16389 23.3236 6.98056 23.9556 7.875 24.4708C8.76944 24.9861 9.73681 25.3944 10.7771 25.6958C11.8174 25.9972 12.8917 26.1431 14 26.1333ZM10.6021 13.0667H20.5333V14.9333H10.6021L14.6562 18.9292L13.3438 20.2708L7.01458 14L13.3438 7.72917L14.6562 9.07083L10.6021 13.0667Z" fill="#3E8BFF"/>
</svg>
