<svg width="25" height="25" viewBox="0 0 25 25" fill="none" xmlns="http://www.w3.org/2000/svg">
<path d="M5.68188 14.2857H14.7728V16.0714H5.68188V14.2857ZM5.68188 9.82143H19.3182V11.6071H5.68188V9.82143ZM5.68188 18.75H11.3637V20.5357H5.68188V18.75Z" fill="black"/>
<path d="M22.7273 2.67857H19.3182V1.78571C19.3182 1.31211 19.0787 0.85791 18.6525 0.523023C18.2263 0.188137 17.6482 0 17.0455 0H7.95455C7.35178 0 6.7737 0.188137 6.34749 0.523023C5.92127 0.85791 5.68182 1.31211 5.68182 1.78571V2.67857H2.27273C1.66996 2.67857 1.09189 2.86671 0.665666 3.20159C0.239447 3.53648 0 3.99068 0 4.46429V23.2143C0 23.6879 0.239447 24.1421 0.665666 24.477C1.09189 24.8119 1.66996 25 2.27273 25H22.7273C23.33 25 23.9081 24.8119 24.3343 24.477C24.7606 24.1421 25 23.6879 25 23.2143V4.46429C25 3.99068 24.7606 3.53648 24.3343 3.20159C23.9081 2.86671 23.33 2.67857 22.7273 2.67857ZM7.95455 1.78571H17.0455V5.35714H7.95455V1.78571ZM22.7273 23.2143H2.27273V4.46429H5.68182V7.14286H19.3182V4.46429H22.7273V23.2143Z" fill="black"/>
</svg>
