<svg width="20" height="20" viewBox="0 0 20 20" fill="none" xmlns="http://www.w3.org/2000/svg">
<path d="M10 20C4.48571 20 0 15.5143 0 10C0 4.48571 4.48571 0 10 0C15.5143 0 20 4.48571 20 10C20 15.5143 15.5143 20 10 20ZM10 1.42857C5.27143 1.42857 1.42857 5.27143 1.42857 10C1.42857 14.7286 5.27143 18.5714 10 18.5714C14.7286 18.5714 18.5714 14.7286 18.5714 10C18.5714 5.27143 14.7286 1.42857 10 1.42857Z" fill="#3E8BFF"/>
<path d="M9.99993 15C9.59993 15 9.28564 14.6857 9.28564 14.2857V5.71429C9.28564 5.31429 9.59993 5 9.99993 5C10.3999 5 10.7142 5.31429 10.7142 5.71429V14.2857C10.7142 14.6857 10.3999 15 9.99993 15Z" fill="#3E8BFF"/>
<path d="M14.2857 10.7143H5.71429C5.31429 10.7143 5 10.4 5 10C5 9.6 5.31429 9.28571 5.71429 9.28571H14.2857C14.6857 9.28571 15 9.6 15 10C15 10.4 14.6857 10.7143 14.2857 10.7143Z" fill="#3E8BFF"/>
</svg>
