<svg width="25" height="25" viewBox="0 0 25 25" fill="none" xmlns="http://www.w3.org/2000/svg">
<path d="M14.2857 0C11.4441 0 8.71889 1.31696 6.70957 3.66116C4.70025 6.00537 3.57143 9.18479 3.57143 12.5H0L4.63095 17.9028L4.71429 18.0972L9.52381 12.5H5.95238C5.95238 7.125 9.67857 2.77778 14.2857 2.77778C18.8929 2.77778 22.619 7.125 22.619 12.5C22.619 17.875 18.8929 22.2222 14.2857 22.2222C11.9881 22.2222 9.90476 21.125 8.40476 19.3611L6.71429 21.3333C7.70645 22.4972 8.88629 23.4205 10.1858 24.0498C11.4853 24.6791 12.8787 25.002 14.2857 25C17.1273 25 19.8525 23.683 21.8619 21.3388C23.8712 18.9946 25 15.8152 25 12.5C25 9.18479 23.8712 6.00537 21.8619 3.66116C19.8525 1.31696 17.1273 4.94004e-08 14.2857 0ZM13.0952 6.94444V13.8889L18.1548 17.3889L19.0714 15.6111L14.881 12.7083V6.94444H13.0952Z" fill="black"/>
</svg>
