<svg width="19" height="23" viewBox="0 0 19 23" fill="none" xmlns="http://www.w3.org/2000/svg">
<path d="M13.1246 14.4654H12.2951L12.0011 14.1104C13.0657 12.5639 13.6507 10.5896 13.6496 8.54774C13.6496 6.85716 13.2493 5.20454 12.4994 3.79887C11.7495 2.39321 10.6836 1.29762 9.43652 0.650662C8.18946 0.0037036 6.81722 -0.16557 5.49334 0.164246C4.16946 0.494063 2.9534 1.30816 1.99894 2.50358C1.04447 3.699 0.394475 5.22206 0.131139 6.88016C-0.132196 8.53826 0.00295707 10.2569 0.519509 11.8188C1.03606 13.3807 1.91081 14.7157 3.03314 15.6549C4.15547 16.5942 5.47497 17.0955 6.82479 17.0955C8.51524 17.0955 10.0692 16.3196 11.2662 15.0309L11.5496 15.3991V16.438L16.7995 23L18.3639 21.0406L13.1246 14.4654ZM6.82479 14.4654C4.21037 14.4654 2.09994 11.8222 2.09994 8.54774C2.09994 5.2733 4.21037 2.63008 6.82479 2.63008C9.43921 2.63008 11.5496 5.2733 11.5496 8.54774C11.5496 11.8222 9.43921 14.4654 6.82479 14.4654Z" fill="#3E8BFF"/>
</svg>
