<svg width="19" height="21" viewBox="0 0 19 21" fill="none" xmlns="http://www.w3.org/2000/svg">
<path d="M13.2819 13.2075H12.4425L12.145 12.8834C13.2223 11.4714 13.8144 9.66876 13.8132 7.80446C13.8132 6.26088 13.4081 4.75197 12.6492 3.46854C11.8903 2.1851 10.8117 1.18478 9.54964 0.594082C8.28763 0.00338155 6.89894 -0.151173 5.55919 0.149964C4.21944 0.451101 2.9888 1.1944 2.0229 2.28588C1.05699 3.37735 0.399204 4.76797 0.132711 6.28188C-0.133781 7.7958 0.00299252 9.36502 0.525737 10.7911C1.04848 12.2172 1.93372 13.4361 3.0695 14.2936C4.20529 15.1512 5.54061 15.6089 6.9066 15.6089C8.61731 15.6089 10.1899 14.9005 11.4012 13.7238L11.6881 14.06V15.0086L17.0009 21L18.5841 19.211L13.2819 13.2075ZM6.9066 13.2075C4.26084 13.2075 2.12511 10.7942 2.12511 7.80446C2.12511 4.81475 4.26084 2.40137 6.9066 2.40137C9.55236 2.40137 11.6881 4.81475 11.6881 7.80446C11.6881 10.7942 9.55236 13.2075 6.9066 13.2075Z" fill="#3E8BFF"/>
</svg>
