<svg width="22" height="21" viewBox="0 0 22 21" fill="none" xmlns="http://www.w3.org/2000/svg">
<path d="M15.75 12.25C16.0152 12.25 16.2696 12.1446 16.4571 11.9571C16.6446 11.7696 16.75 11.5152 16.75 11.25C16.75 10.9848 16.6446 10.7304 16.4571 10.5429C16.2696 10.3554 16.0152 10.25 15.75 10.25C15.4848 10.25 15.2304 10.3554 15.0429 10.5429C14.8554 10.7304 14.75 10.9848 14.75 11.25C14.75 11.5152 14.8554 11.7696 15.0429 11.9571C15.2304 12.1446 15.4848 12.25 15.75 12.25ZM15.75 16.25C16.0152 16.25 16.2696 16.1446 16.4571 15.9571C16.6446 15.7696 16.75 15.5152 16.75 15.25C16.75 14.9848 16.6446 14.7304 16.4571 14.5429C16.2696 14.3554 16.0152 14.25 15.75 14.25C15.4848 14.25 15.2304 14.3554 15.0429 14.5429C14.8554 14.7304 14.75 14.9848 14.75 15.25C14.75 15.5152 14.8554 15.7696 15.0429 15.9571C15.2304 16.1446 15.4848 16.25 15.75 16.25ZM11.75 11.25C11.75 11.5152 11.6446 11.7696 11.4571 11.9571C11.2696 12.1446 11.0152 12.25 10.75 12.25C10.4848 12.25 10.2304 12.1446 10.0429 11.9571C9.85536 11.7696 9.75 11.5152 9.75 11.25C9.75 10.9848 9.85536 10.7304 10.0429 10.5429C10.2304 10.3554 10.4848 10.25 10.75 10.25C11.0152 10.25 11.2696 10.3554 11.4571 10.5429C11.6446 10.7304 11.75 10.9848 11.75 11.25ZM11.75 15.25C11.75 15.5152 11.6446 15.7696 11.4571 15.9571C11.2696 16.1446 11.0152 16.25 10.75 16.25C10.4848 16.25 10.2304 16.1446 10.0429 15.9571C9.85536 15.7696 9.75 15.5152 9.75 15.25C9.75 14.9848 9.85536 14.7304 10.0429 14.5429C10.2304 14.3554 10.4848 14.25 10.75 14.25C11.0152 14.25 11.2696 14.3554 11.4571 14.5429C11.6446 14.7304 11.75 14.9848 11.75 15.25ZM5.75 12.25C6.01522 12.25 6.26957 12.1446 6.45711 11.9571C6.64464 11.7696 6.75 11.5152 6.75 11.25C6.75 10.9848 6.64464 10.7304 6.45711 10.5429C6.26957 10.3554 6.01522 10.25 5.75 10.25C5.48478 10.25 5.23043 10.3554 5.04289 10.5429C4.85536 10.7304 4.75 10.9848 4.75 11.25C4.75 11.5152 4.85536 11.7696 5.04289 11.9571C5.23043 12.1446 5.48478 12.25 5.75 12.25ZM5.75 16.25C6.01522 16.25 6.26957 16.1446 6.45711 15.9571C6.64464 15.7696 6.75 15.5152 6.75 15.25C6.75 14.9848 6.64464 14.7304 6.45711 14.5429C6.26957 14.3554 6.01522 14.25 5.75 14.25C5.48478 14.25 5.23043 14.3554 5.04289 14.5429C4.85536 14.7304 4.75 14.9848 4.75 15.25C4.75 15.5152 4.85536 15.7696 5.04289 15.9571C5.23043 16.1446 5.48478 16.25 5.75 16.25Z" fill="#3E8BFF"/>
<path fill-rule="evenodd" clip-rule="evenodd" d="M5.75 0C5.94891 0 6.13968 0.0790177 6.28033 0.21967C6.42098 0.360322 6.5 0.551088 6.5 0.75V1.513C7.162 1.5 7.891 1.5 8.693 1.5H12.806C13.609 1.5 14.338 1.5 15 1.513V0.75C15 0.551088 15.079 0.360322 15.2197 0.21967C15.3603 0.0790177 15.5511 0 15.75 0C15.9489 0 16.1397 0.0790177 16.2803 0.21967C16.421 0.360322 16.5 0.551088 16.5 0.75V1.577C16.76 1.597 17.006 1.622 17.239 1.653C18.411 1.811 19.36 2.143 20.109 2.891C20.857 3.64 21.189 4.589 21.347 5.761C21.5 6.901 21.5 8.356 21.5 10.194V12.306C21.5 14.144 21.5 15.6 21.347 16.739C21.189 17.911 20.857 18.86 20.109 19.609C19.36 20.357 18.411 20.689 17.239 20.847C16.099 21 14.644 21 12.806 21H8.694C6.856 21 5.4 21 4.261 20.847C3.089 20.689 2.14 20.357 1.391 19.609C0.643 18.86 0.311 17.911 0.153 16.739C0 15.599 0 14.144 0 12.306V10.194C0 8.356 0 6.9 0.153 5.761C0.311 4.589 0.643 3.64 1.391 2.891C2.14 2.143 3.089 1.811 4.261 1.653C4.494 1.622 4.741 1.597 5 1.577V0.75C5 0.551088 5.07902 0.360322 5.21967 0.21967C5.36032 0.0790177 5.55109 0 5.75 0ZM4.46 3.14C3.455 3.275 2.875 3.529 2.452 3.952C2.029 4.375 1.775 4.955 1.64 5.961C1.617 6.131 1.598 6.311 1.582 6.5H19.918C19.902 6.31 19.883 6.131 19.86 5.96C19.725 4.955 19.471 4.375 19.048 3.952C18.625 3.529 18.045 3.275 17.039 3.14C16.012 3.002 14.657 3 12.75 3H8.75C6.843 3 5.489 3.002 4.46 3.14ZM1.5 10.25C1.5 9.396 1.5 8.653 1.513 8H19.987C20 8.653 20 9.396 20 10.25V12.25C20 14.157 19.998 15.512 19.86 16.54C19.725 17.545 19.471 18.125 19.048 18.548C18.625 18.971 18.045 19.225 17.039 19.36C16.012 19.498 14.657 19.5 12.75 19.5H8.75C6.843 19.5 5.489 19.498 4.46 19.36C3.455 19.225 2.875 18.971 2.452 18.548C2.029 18.125 1.775 17.545 1.64 16.539C1.502 15.512 1.5 14.157 1.5 12.25V10.25Z" fill="#3E8BFF"/>
</svg>
