<svg width="25" height="25" viewBox="0 0 25 25" fill="none" xmlns="http://www.w3.org/2000/svg">
<path d="M10.1672 15.1651C9.75004 15.1651 9.34222 15.2641 8.99533 15.4495C8.64845 15.6349 8.37808 15.8985 8.21843 16.2068C8.05878 16.5152 8.017 16.8545 8.09839 17.1818C8.17978 17.5092 8.38068 17.8098 8.67568 18.0458C8.97069 18.2818 9.34654 18.4426 9.75572 18.5077C10.1649 18.5728 10.589 18.5394 10.9745 18.4116C11.3599 18.2839 11.6893 18.0676 11.9211 17.7901C12.1529 17.5126 12.2766 17.1864 12.2766 16.8526C12.277 16.6309 12.2227 16.4113 12.1169 16.2064C12.011 16.0015 11.8557 15.8154 11.6597 15.6586C11.4638 15.5019 11.2311 15.3776 10.9749 15.2929C10.7188 15.2082 10.4444 15.1648 10.1672 15.1651Z" fill="black"/>
<path d="M15.625 0H3.125C2.29853 0.00231687 1.50696 0.266851 0.924021 0.735549C0.341078 1.20425 0.0143823 1.83882 0.0156289 2.5L3.55481e-06 22.5C-0.0012431 23.1612 0.325453 23.7958 0.908395 24.2645C1.49134 24.7331 2.2829 24.9977 3.10938 25H21.875C22.703 24.998 23.4965 24.734 24.082 24.2656C24.6675 23.7972 24.9975 23.1624 25 22.5V7.5L15.625 0ZM16.9734 18.6975L15.5672 20.6437C15.5231 20.7011 15.4558 20.7446 15.3765 20.7671C15.2972 20.7896 15.2107 20.7898 15.1313 20.7675L13.3734 20.205C13.0117 20.4291 12.6145 20.614 12.1922 20.755L11.9266 22.2412C11.9113 22.3074 11.8677 22.3671 11.8032 22.4103C11.7387 22.4534 11.6575 22.4772 11.5734 22.4775H8.76094C8.67636 22.4786 8.59415 22.4551 8.52952 22.4115C8.46488 22.3678 8.42221 22.3069 8.40938 22.24L8.14375 20.7562C7.71373 20.6195 7.31062 20.4338 6.94688 20.205L5.20313 20.7675C5.12377 20.7916 5.03624 20.7923 4.95631 20.7694C4.87638 20.7465 4.80931 20.7015 4.76719 20.6425L3.36094 18.6975C3.32167 18.6388 3.30863 18.5711 3.32397 18.5056C3.33932 18.4402 3.38212 18.3809 3.44532 18.3375L4.93594 17.4037C4.87974 17.0376 4.87974 16.6674 4.93594 16.3012L3.44532 15.3675C3.37928 15.3258 3.33436 15.2663 3.31885 15.2001C3.30334 15.134 3.31829 15.0655 3.36094 15.0075L4.76719 13.0612C4.81113 13.0034 4.87859 12.9595 4.95824 12.9367C5.0379 12.9139 5.12491 12.9138 5.20469 12.9362L6.94688 13.4987C7.31555 13.2768 7.71702 13.0921 8.14219 12.9488L8.40938 11.4637C8.42428 11.3976 8.46754 11.3377 8.53172 11.2944C8.59589 11.251 8.67695 11.2269 8.76094 11.2262H11.5734C11.6564 11.2255 11.7368 11.2493 11.7992 11.2932C11.8615 11.337 11.9013 11.3978 11.9109 11.4637L12.1781 12.9488C12.6075 13.0852 13.0101 13.2704 13.3734 13.4987L15.1172 12.9362C15.1967 12.9118 15.2846 12.9109 15.3649 12.9339C15.4452 12.9568 15.5125 13.002 15.5547 13.0612L16.9609 15.0075C17 15.0664 17.0128 15.1341 16.9972 15.1996C16.9816 15.2651 16.9385 15.3243 16.875 15.3675L15.3844 16.3012C15.4245 16.4828 15.4433 16.6669 15.4406 16.8512C15.4365 17.0362 15.4177 17.2207 15.3844 17.4037L16.8891 18.3375C16.9523 18.3809 16.9951 18.4402 17.0104 18.5056C17.0257 18.5711 17.0127 18.6388 16.9734 18.6975ZM14.0625 8.75V1.875L22.6562 8.75H14.0625Z" fill="black"/>
</svg>
