<svg width="23" height="23" viewBox="0 0 23 23" fill="none" xmlns="http://www.w3.org/2000/svg">
<path d="M16.2947 13.4169C16.5691 13.4169 16.8323 13.3015 17.0263 13.0961C17.2203 12.8907 17.3293 12.6122 17.3293 12.3217C17.3293 12.0312 17.2203 11.7526 17.0263 11.5472C16.8323 11.3418 16.5691 11.2265 16.2947 11.2265C16.0203 11.2265 15.7572 11.3418 15.5632 11.5472C15.3691 11.7526 15.2601 12.0312 15.2601 12.3217C15.2601 12.6122 15.3691 12.8907 15.5632 13.0961C15.7572 13.3015 16.0203 13.4169 16.2947 13.4169ZM16.2947 17.7979C16.5691 17.7979 16.8323 17.6825 17.0263 17.4771C17.2203 17.2717 17.3293 16.9931 17.3293 16.7026C17.3293 16.4122 17.2203 16.1336 17.0263 15.9282C16.8323 15.7228 16.5691 15.6074 16.2947 15.6074C16.0203 15.6074 15.7572 15.7228 15.5632 15.9282C15.3691 16.1336 15.2601 16.4122 15.2601 16.7026C15.2601 16.9931 15.3691 17.2717 15.5632 17.4771C15.7572 17.6825 16.0203 17.7979 16.2947 17.7979ZM12.1564 12.3217C12.1564 12.6122 12.0474 12.8907 11.8534 13.0961C11.6593 13.3015 11.3962 13.4169 11.1218 13.4169C10.8474 13.4169 10.5843 13.3015 10.3902 13.0961C10.1962 12.8907 10.0872 12.6122 10.0872 12.3217C10.0872 12.0312 10.1962 11.7526 10.3902 11.5472C10.5843 11.3418 10.8474 11.2265 11.1218 11.2265C11.3962 11.2265 11.6593 11.3418 11.8534 11.5472C12.0474 11.7526 12.1564 12.0312 12.1564 12.3217ZM12.1564 16.7026C12.1564 16.9931 12.0474 17.2717 11.8534 17.4771C11.6593 17.6825 11.3962 17.7979 11.1218 17.7979C10.8474 17.7979 10.5843 17.6825 10.3902 17.4771C10.1962 17.2717 10.0872 16.9931 10.0872 16.7026C10.0872 16.4122 10.1962 16.1336 10.3902 15.9282C10.5843 15.7228 10.8474 15.6074 11.1218 15.6074C11.3962 15.6074 11.6593 15.7228 11.8534 15.9282C12.0474 16.1336 12.1564 16.4122 12.1564 16.7026ZM5.94887 13.4169C6.22326 13.4169 6.48641 13.3015 6.68043 13.0961C6.87445 12.8907 6.98345 12.6122 6.98345 12.3217C6.98345 12.0312 6.87445 11.7526 6.68043 11.5472C6.48641 11.3418 6.22326 11.2265 5.94887 11.2265C5.67448 11.2265 5.41133 11.3418 5.21731 11.5472C5.02328 11.7526 4.91428 12.0312 4.91428 12.3217C4.91428 12.6122 5.02328 12.8907 5.21731 13.0961C5.41133 13.3015 5.67448 13.4169 5.94887 13.4169ZM5.94887 17.7979C6.22326 17.7979 6.48641 17.6825 6.68043 17.4771C6.87445 17.2717 6.98345 16.9931 6.98345 16.7026C6.98345 16.4122 6.87445 16.1336 6.68043 15.9282C6.48641 15.7228 6.22326 15.6074 5.94887 15.6074C5.67448 15.6074 5.41133 15.7228 5.21731 15.9282C5.02328 16.1336 4.91428 16.4122 4.91428 16.7026C4.91428 16.9931 5.02328 17.2717 5.21731 17.4771C5.41133 17.6825 5.67448 17.7979 5.94887 17.7979Z" fill="#3E8BFF"/>
<path fill-rule="evenodd" clip-rule="evenodd" d="M5.94886 0C6.15466 0 6.35202 0.0865432 6.49754 0.240591C6.64305 0.394639 6.7248 0.603572 6.7248 0.821429V1.6571C7.4097 1.64286 8.16391 1.64286 8.99365 1.64286H13.2489C14.0797 1.64286 14.8339 1.64286 15.5188 1.6571V0.821429C15.5188 0.603572 15.6005 0.394639 15.746 0.240591C15.8916 0.0865432 16.0889 0 16.2947 0C16.5005 0 16.6979 0.0865432 16.8434 0.240591C16.9889 0.394639 17.0707 0.603572 17.0707 0.821429V1.72719C17.3396 1.7491 17.5942 1.77648 17.8352 1.81043C19.0477 1.98348 20.0296 2.3471 20.8045 3.16633C21.5783 3.98667 21.9218 5.02605 22.0853 6.30967C22.2436 7.55824 22.2436 9.15181 22.2436 11.1649V13.478C22.2436 15.491 22.2436 17.0857 22.0853 18.3332C21.9218 19.6168 21.5783 20.6562 20.8045 21.4765C20.0296 22.2958 19.0477 22.6594 17.8352 22.8324C16.6558 23 15.1505 23 13.2489 23H8.99468C7.09312 23 5.58676 23 4.40837 22.8324C3.19583 22.6594 2.21401 22.2958 1.43911 21.4765C0.665238 20.6562 0.321756 19.6168 0.158291 18.3332C0 17.0846 0 15.491 0 13.478V11.1649C0 9.15181 0 7.55714 0.158291 6.30967C0.321756 5.02605 0.665238 3.98667 1.43911 3.16633C2.21401 2.3471 3.19583 1.98348 4.40837 1.81043C4.64943 1.77648 4.90497 1.7491 5.17293 1.72719V0.821429C5.17293 0.603572 5.25468 0.394639 5.40019 0.240591C5.54571 0.0865432 5.74307 0 5.94886 0ZM4.61425 3.43905C3.57449 3.5869 2.97443 3.8651 2.5368 4.32838C2.09917 4.79167 1.83639 5.42691 1.69672 6.52871C1.67292 6.71491 1.65327 6.91205 1.63671 7.11905H20.6069C20.5903 6.91095 20.5707 6.71491 20.5469 6.52762C20.4072 5.42691 20.1444 4.79167 19.7068 4.32838C19.2691 3.8651 18.6691 3.5869 17.6283 3.43905C16.5658 3.2879 15.1639 3.28571 13.191 3.28571H9.05262C7.07967 3.28571 5.67884 3.2879 4.61425 3.43905ZM1.55188 11.2262C1.55188 10.2909 1.55188 9.4771 1.56533 8.76191H20.6782C20.6917 9.4771 20.6917 10.2909 20.6917 11.2262V13.4167C20.6917 15.5053 20.6896 16.9893 20.5469 18.1152C20.4072 19.216 20.1444 19.8512 19.7068 20.3145C19.2691 20.7778 18.6691 21.056 17.6283 21.2038C16.5658 21.355 15.1639 21.3571 13.191 21.3571H9.05262C7.07967 21.3571 5.67884 21.355 4.61425 21.2038C3.57449 21.056 2.97443 20.7778 2.5368 20.3145C2.09917 19.8512 1.83639 19.216 1.69672 18.1141C1.55395 16.9893 1.55188 15.5053 1.55188 13.4167V11.2262Z" fill="#3E8BFF"/>
</svg>
