<svg width="19" height="20" viewBox="0 0 19 20" fill="none" xmlns="http://www.w3.org/2000/svg">
<path d="M13.1324 12.5786H12.3024L12.0083 12.2699C13.0734 10.9251 13.6588 9.20834 13.6577 7.43282C13.6577 5.96275 13.2572 4.52569 12.5068 3.30337C11.7565 2.08105 10.6899 1.12837 9.44213 0.565793C8.19432 0.00322052 6.82127 -0.143974 5.4966 0.142823C4.17194 0.42962 2.95515 1.13753 2.00012 2.17703C1.04509 3.21652 0.39471 4.54092 0.131217 5.98275C-0.132275 7.42458 0.00295883 8.91907 0.519818 10.2772C1.03668 11.6354 1.91195 12.7963 3.03494 13.613C4.15794 14.4297 5.47823 14.8656 6.82884 14.8656C8.52029 14.8656 10.0752 14.191 11.2728 13.0703L11.5565 13.3905V14.2939L16.8095 20L18.3748 18.2962L13.1324 12.5786ZM6.82884 12.5786C4.21287 12.5786 2.10118 10.2802 2.10118 7.43282C2.10118 4.58548 4.21287 2.28702 6.82884 2.28702C9.44481 2.28702 11.5565 4.58548 11.5565 7.43282C11.5565 10.2802 9.44481 12.5786 6.82884 12.5786Z" fill="#3E8BFF"/>
</svg>
